# xmcd
#
# Track frame offsets:
#	150
#	16852
#	31237
#	39415
#	54107
#	64325
#	80532
#	91780
#	104912
#	115552
#	129967
#	143162
#	153910
#	163212
#
# Disc length: 2358
#
# Revision: 2
# Processed by: cddbd v1.5.1PL0 Copyright (c) Steve Scherf et al.
# Submitted via: EasyCDDAExtractor 6.0.0.1
# Normalized: r1:DSETVAR1
#
DISCID=a909340e
DTITLE=Various Artist - Country Christmas Legends
DYEAR=2001
DGENRE=Country
TTITLE0=Dolly Parton - WinterWonderland Sleigh Ride
TTITLE1=Jim Reeves - Blue Christmas
TTITLE2=Chet Atkins - Jingle Bell Rock
TTITLE3=Ronnie Milsap - I'll be home for Christmas
TTITLE4=Skeeter Davis - Santa Claus is coming to Town
TTITLE5=Alabama - Christmas in Dixie
TTITLE6=Lorne Greene - Jingle Bells
TTITLE7=Oak Ridge Boys - Go tell it on the Mountain
TTITLE8=Willie Nelson - Pretty Paper
TTITLE9=Don Williams - O Come, All Ye Faithful
TTITLE10=Floyd Cramer - Silver Bells WinterWonderland
TTITLE11=Hank Snow - The Reindeer Boogie
TTITLE12=Eddy Arnold - Up on the Housetop
TTITLE13=Charley Pride - Silent Night
EXTD=
EXTT0=
EXTT1=
EXTT2=
EXTT3=
EXTT4=
EXTT5=
EXTT6=
EXTT7=
EXTT8=
EXTT9=
EXTT10=
EXTT11=
EXTT12=
EXTT13=
PLAYORDER=
